<svg xmlns="http://www.w3.org/2000/svg" viewBox="0 0 200 200" fill="none">
  <!-- Outer ring -->
  <circle cx="100" cy="100" r="96" fill="#0A0A0F" stroke="#D4A017" stroke-width="3"/>
  <!-- Blue lower half (DRC flag cobalt blue) -->
  <path d="M 16 118 A 84 84 0 0 0 184 118 Q 160 148 100 155 Q 40 148 16 118 Z" fill="#1565C0"/>
  <!-- Gold diagonal band 1 -->
  <path d="M 22 100 Q 100 76 178 98 Q 100 90 22 108 Z" fill="#D4A017"/>
  <!-- Gold diagonal band 2 -->
  <path d="M 18 114 Q 100 90 182 112 Q 100 104 18 122 Z" fill="#B8860B" opacity="0.7"/>
  <!-- Inner ring highlight -->
  <circle cx="100" cy="100" r="84" fill="none" stroke="#D4A017" stroke-width="1.5" opacity="0.4"/>
  <!-- Gold star -->
  <polygon
    points="100,32 104.9,47 120.5,47 108.3,56.1 113.1,71 100,62 86.9,71 91.7,56.1 79.5,47 95.1,47"
    fill="#D4A017"/>
</svg>
